<svg width="17" height="16" viewBox="0 0 17 16" fill="none" xmlns="http://www.w3.org/2000/svg">
<g clip-path="url(#clip0_7_168)">
<path d="M3.10447 2H13.9441C14.3035 2 14.6481 2.14048 14.9022 2.39052C15.1563 2.64057 15.2991 2.97971 15.2991 3.33333V7.33333C15.2991 9.10144 14.5853 10.7971 13.3148 12.0474C12.0443 13.2976 10.3211 14 8.52429 14C7.63461 14 6.75365 13.8276 5.93169 13.4925C5.10974 13.1575 4.36289 12.6664 3.7338 12.0474C2.46328 10.7971 1.74951 9.10144 1.74951 7.33333V3.33333C1.74951 2.97971 1.89227 2.64057 2.14637 2.39052C2.40047 2.14048 2.74511 2 3.10447 2V2Z" stroke="#0768B5" stroke-width="2" stroke-linecap="round" stroke-linejoin="round"/>
<path d="M5.81433 6.66666L8.52424 9.33332L11.2341 6.66666" stroke="#0768B5" stroke-width="2" stroke-linecap="round" stroke-linejoin="round"/>
</g>
<defs>
<clipPath id="clip0_7_168">
<rect width="16.2595" height="16" fill="white" transform="translate(0.394531)"/>
</clipPath>
</defs>
</svg>
