<svg width="19" height="19" viewBox="0 0 19 19" fill="none" xmlns="http://www.w3.org/2000/svg">
<g clip-path="url(#clip0_13_1387)">
<path d="M13.4582 1.58329H15.572C16.02 1.57537 16.4554 1.73223 16.7954 2.02411C17.1355 2.31598 17.3565 2.72255 17.4166 3.16663V8.70829C17.3565 9.15237 17.1355 9.55894 16.7954 9.85081C16.4554 10.1427 16.02 10.2996 15.572 10.2916H13.4582M7.91657 11.875V15.0416C7.91657 15.6715 8.16679 16.2756 8.61219 16.721C9.05759 17.1664 9.66168 17.4166 10.2916 17.4166L13.4582 10.2916V1.58329H4.52824C4.14639 1.57898 3.77585 1.71281 3.48489 1.96012C3.19393 2.20744 3.00216 2.55158 2.9449 2.92913L1.8524 10.0541C1.81796 10.2811 1.83326 10.5128 1.89726 10.7332C1.96125 10.9536 2.0724 11.1575 2.22301 11.3307C2.37362 11.5039 2.56009 11.6423 2.76949 11.7362C2.97889 11.8302 3.20623 11.8776 3.43574 11.875H7.91657Z" stroke="#072D4B" stroke-width="2" stroke-linecap="round" stroke-linejoin="round"/>
</g>
<defs>
<clipPath id="clip0_13_1387">
<rect width="19" height="19" fill="white"/>
</clipPath>
</defs>
</svg>
