<svg width="20" height="19" viewBox="0 0 20 19" fill="none" xmlns="http://www.w3.org/2000/svg">
<g clip-path="url(#clip0_13_1385)">
<path d="M5.83341 17.4167H3.33341C2.89139 17.4167 2.46746 17.2499 2.1549 16.953C1.84234 16.656 1.66675 16.2533 1.66675 15.8334V10.2917C1.66675 9.87178 1.84234 9.46905 2.1549 9.17212C2.46746 8.87519 2.89139 8.70837 3.33341 8.70837H5.83341M11.6667 7.12504V3.95837C11.6667 3.32848 11.4034 2.72439 10.9345 2.279C10.4657 1.8336 9.82979 1.58337 9.16675 1.58337L5.83341 8.70837V17.4167H15.2334C15.6354 17.421 16.0254 17.2872 16.3317 17.0399C16.6379 16.7926 16.8398 16.4484 16.9001 16.0709L18.0501 8.94587C18.0863 8.71895 18.0702 8.48725 18.0029 8.26682C17.9355 8.0464 17.8185 7.84252 17.66 7.66932C17.5014 7.49612 17.3051 7.35774 17.0847 7.26375C16.8643 7.16977 16.625 7.12244 16.3834 7.12504H11.6667Z" stroke="#072D4B" stroke-width="2" stroke-linecap="round" stroke-linejoin="round"/>
</g>
<defs>
<clipPath id="clip0_13_1385">
<rect width="20" height="19" fill="white"/>
</clipPath>
</defs>
</svg>
