<svg width="20" height="20" viewBox="0 0 20 20" fill="none" xmlns="http://www.w3.org/2000/svg">
<path d="M2.5 5H4.16667H17.5" stroke="#FF8C8C" stroke-width="2" stroke-linecap="round" stroke-linejoin="round"/>
<path d="M6.66675 4.99996V3.33329C6.66675 2.89127 6.84234 2.46734 7.1549 2.15478C7.46746 1.84222 7.89139 1.66663 8.33341 1.66663H11.6667C12.1088 1.66663 12.5327 1.84222 12.8453 2.15478C13.1578 2.46734 13.3334 2.89127 13.3334 3.33329V4.99996M15.8334 4.99996V16.6666C15.8334 17.1087 15.6578 17.5326 15.3453 17.8451C15.0327 18.1577 14.6088 18.3333 14.1667 18.3333H5.83341C5.39139 18.3333 4.96746 18.1577 4.6549 17.8451C4.34234 17.5326 4.16675 17.1087 4.16675 16.6666V4.99996H15.8334Z" stroke="#FF8C8C" stroke-width="2" stroke-linecap="round" stroke-linejoin="round"/>
</svg>
